<svg width="211" height="240" viewBox="0 0 211 240" fill="none" xmlns="http://www.w3.org/2000/svg">
<style>
    .logotype { fill: #1F51FF; stroke-width: 4; }
    .logomark { stroke: #1F51FF; }
    @media (prefers-color-scheme: dark) {
      .logotype { fill: #FF009D; stroke-width: 4; }
      .logomark { stroke: #FF009D; }
    }
</style>
<path d="M201 226.474L147.71 202.987L106.176 226.474L77.9633 210.816L63.8571 239L9 226.474L26.2408 193.592V175.586L18.4041 149.75L26.2408 123.914V94.1645L34.0776 11.1776L131.253 1L125.767 45.625L131.253 61.2829V80.8553L139.873 104.342L147.71 123.914L157.898 139.572L201 226.474Z" class="logomark"/>
<rect y="72" width="31" height="79" class="logotype"/>
<rect x="103" y="72" width="20" height="79" class="logotype"/>
<path d="M136 72H151C153.761 72 156 74.2386 156 77V151H136V72Z" class="logotype"/>
<rect x="113" y="72" width="23" height="11.9245" class="logotype"/>
<rect x="118" y="139.075" width="23" height="11.9245" class="logotype"/>
<rect x="126" y="103.232" width="7" height="16.5349" class="logotype"/>
<rect x="160" y="72" width="20" height="42.2558" class="logotype"/>
<rect x="191" y="100.783" width="20" height="50.2171" class="logotype"/>
<rect x="169" y="100.783" width="23" height="13.4729" class="logotype"/>
<rect x="160" y="139.364" width="38" height="11.6357" class="logotype"/>
<path d="M173 72H206C208.761 72 211 74.2386 211 77V83.6357H173V72Z" class="logotype"/>
<rect x="35" y="93.4346" width="30" height="57.5659" class="logotype"/>
<rect x="57" y="93.4346" width="23" height="9.79845" class="logotype"/>
<path d="M69 93.4346H94C96.7614 93.4346 99 95.6731 99 98.4346V151H69V93.4346Z" class="logotype"/>
</svg>
